<svg width="443" height="202" viewBox="0 0 443 202" fill="none" xmlns="http://www.w3.org/2000/svg">
<path d="M119.526 100.646C119.5 90.2447 111.048 81.8339 100.646 81.8598C90.2452 81.8857 81.8344 90.3386 81.8603 100.74C81.8862 111.141 90.3391 119.552 100.74 119.526C111.141 119.5 119.552 111.047 119.526 100.646Z" fill="black" stroke="white" stroke-width="2" stroke-linecap="round" stroke-linejoin="round"/>
<path d="M63.0893 125.897C63.0634 115.496 54.6106 107.085 44.2094 107.111C33.8082 107.137 25.3974 115.59 25.4233 125.991C25.4492 136.392 33.902 144.803 44.3032 144.777C54.7044 144.751 63.1152 136.299 63.0893 125.897Z" fill="#007036" stroke="white" stroke-width="2" stroke-linecap="round" stroke-linejoin="round"/>
<path d="M100.552 44.1938C100.526 33.7926 92.0735 25.3818 81.6723 25.4077C71.2711 25.4336 62.8603 33.8864 62.8862 44.2876C62.9121 54.6888 71.3649 63.0996 81.7661 63.0737C92.1673 63.0478 100.578 54.595 100.552 44.1938Z" fill="#0073A5" stroke="white" stroke-width="2" stroke-linecap="round" stroke-linejoin="round"/>
<path d="M163.329 44.0375C163.303 33.6363 154.85 25.2255 144.449 25.2514C134.048 25.2773 125.637 33.7302 125.663 44.1313C125.689 54.5325 134.142 62.9434 144.543 62.9175C154.944 62.8915 163.355 54.4387 163.329 44.0375Z" fill="#823783" stroke="white" stroke-width="2" stroke-linecap="round" stroke-linejoin="round"/>
<path d="M169.888 157.02C169.862 146.619 161.409 138.208 151.008 138.234C140.607 138.26 132.196 146.713 132.222 157.114C132.248 167.515 140.701 175.926 151.102 175.9C161.503 175.874 169.914 167.421 169.888 157.02Z" fill="#BC0B3B" stroke="white" stroke-width="2" stroke-linecap="round" stroke-linejoin="round"/>
<path d="M83.527 108.347L61.4229 118.29" stroke="white" stroke-width="2" stroke-linecap="round" stroke-linejoin="round"/>
<path d="M87.7277 62.1172L94.6847 82.8163" stroke="white" stroke-width="2" stroke-linecap="round" stroke-linejoin="round"/>
<path d="M132.998 58.944L112.191 85.833" stroke="white" stroke-width="2" stroke-linecap="round" stroke-linejoin="round"/>
<path d="M113.205 114.708L138.544 143.052" stroke="white" stroke-width="2" stroke-linecap="round" stroke-linejoin="round"/>
<path d="M186.231 126.77C186.231 129.85 185.277 132.344 183.371 134.25C181.464 136.084 178.971 137 175.891 137H167.971C164.891 137 162.397 136.084 160.491 134.25C158.584 132.344 157.631 129.85 157.631 126.77V70.2302C157.631 67.1502 158.584 64.6936 160.491 62.8602C162.397 60.9536 164.891 60.0002 167.971 60.0002H175.891C178.971 60.0002 181.464 60.9536 183.371 62.8602C185.277 64.6936 186.231 67.1502 186.231 70.2302V87.8302H175.781V70.7802C175.781 70.4136 175.597 70.2302 175.231 70.2302H168.631C168.264 70.2302 168.081 70.4136 168.081 70.7802V126.22C168.081 126.587 168.264 126.77 168.631 126.77H175.231C175.597 126.77 175.781 126.587 175.781 126.22V103.45H171.491L172.371 93.2202H186.231V126.77ZM218.659 127.21C218.659 130.29 217.706 132.784 215.799 134.69C213.893 136.524 211.399 137.44 208.319 137.44H201.499C198.419 137.44 195.926 136.524 194.019 134.69C192.113 132.784 191.159 130.29 191.159 127.21V70.2302H189.509L190.609 60.0002H201.609V126.66C201.609 127.027 201.793 127.21 202.159 127.21H207.659C208.026 127.21 208.209 127.027 208.209 126.66V60.2202H218.659V127.21ZM224.138 137V70.2302H222.488L223.588 60.0002H234.588V137H224.138ZM267.743 126.77L266.863 137H240.573V70.2302H238.923L240.023 60.0002H251.023V126.77H267.743ZM282.068 60.0002V93.2202H288.338V60.0002H298.788V137H288.338V103.45H282.068V137H271.618V70.2302H269.968L271.068 60.0002H282.068ZM328.694 126.77L327.814 137H303.724V70.2302H302.074L303.174 60.0002H328.694L327.594 70.2302H314.174V93.3302H326.494L325.394 103.56H314.174V126.77H328.694ZM331.413 70.2302L332.513 60.0002H349.893C352.973 60.0002 355.467 60.9536 357.373 62.8602C359.28 64.6936 360.233 67.1502 360.233 70.2302V104.66C360.233 106.274 359.903 107.74 359.243 109.06C358.583 110.307 357.703 111.37 356.603 112.25L363.643 137H353.083L346.813 114.89H343.513V137H333.063V70.2302H331.413ZM349.233 70.2302H343.513V104.66H349.233C349.6 104.66 349.783 104.477 349.783 104.11V70.7802C349.783 70.4136 349.6 70.2302 349.233 70.2302ZM366.364 137V70.2302H364.714L365.814 60.0002H382.974L388.254 101.47L393.644 60.0002H410.474V137H400.024V77.1602L391.884 126H384.734L376.814 78.4802V137H366.364ZM440.413 126.77L439.533 137H415.443V70.2302H413.793L414.893 60.0002H440.413L439.313 70.2302H425.893V93.3302H438.213L437.113 103.56H425.893V126.77H440.413Z" fill="#D9D9D9"/>
<path d="M183.371 134.25L184.064 134.971L184.071 134.964L184.078 134.957L183.371 134.25ZM160.491 134.25L159.784 134.957L159.79 134.964L159.798 134.971L160.491 134.25ZM160.491 62.8602L161.184 63.5811L161.191 63.5743L161.198 63.5673L160.491 62.8602ZM183.371 62.8602L182.664 63.5673L182.67 63.5743L182.678 63.5811L183.371 62.8602ZM186.231 87.8302V88.8302H187.231V87.8302H186.231ZM175.781 87.8302H174.781V88.8302H175.781V87.8302ZM175.781 103.45H176.781V102.45H175.781V103.45ZM171.491 103.45L170.494 103.365L170.401 104.45H171.491V103.45ZM172.371 93.2202V92.2202H171.453L171.374 93.1345L172.371 93.2202ZM186.231 93.2202H187.231V92.2202H186.231V93.2202ZM185.231 126.77C185.231 129.626 184.356 131.851 182.664 133.543L184.078 134.957C186.199 132.836 187.231 130.074 187.231 126.77H185.231ZM182.678 133.529C180.988 135.154 178.758 136 175.891 136V138C179.183 138 181.94 137.013 184.064 134.971L182.678 133.529ZM175.891 136H167.971V138H175.891V136ZM167.971 136C165.103 136 162.874 135.154 161.184 133.529L159.798 134.971C161.921 137.013 164.678 138 167.971 138V136ZM161.198 133.543C159.506 131.851 158.631 129.626 158.631 126.77H156.631C156.631 130.074 157.662 132.836 159.784 134.957L161.198 133.543ZM158.631 126.77V70.2302H156.631V126.77H158.631ZM158.631 70.2302C158.631 67.3736 159.506 65.1946 161.184 63.5811L159.798 62.1394C157.662 64.1925 156.631 66.9268 156.631 70.2302H158.631ZM161.198 63.5673C162.89 61.8753 165.115 61.0002 167.971 61.0002V59.0002C164.666 59.0002 161.905 60.0318 159.784 62.1531L161.198 63.5673ZM167.971 61.0002H175.891V59.0002H167.971V61.0002ZM175.891 61.0002C178.746 61.0002 180.972 61.8753 182.664 63.5673L184.078 62.1531C181.956 60.0318 179.195 59.0002 175.891 59.0002V61.0002ZM182.678 63.5811C184.356 65.1946 185.231 67.3736 185.231 70.2302H187.231C187.231 66.9268 186.199 64.1925 184.064 62.1394L182.678 63.5811ZM185.231 70.2302V87.8302H187.231V70.2302H185.231ZM186.231 86.8302H175.781V88.8302H186.231V86.8302ZM176.781 87.8302V70.7802H174.781V87.8302H176.781ZM176.781 70.7802C176.781 70.4428 176.696 70.006 176.35 69.6606C176.005 69.3153 175.568 69.2302 175.231 69.2302V71.2302C175.26 71.2302 175.098 71.2369 174.936 71.0748C174.774 70.9128 174.781 70.751 174.781 70.7802H176.781ZM175.231 69.2302H168.631V71.2302H175.231V69.2302ZM168.631 69.2302C168.293 69.2302 167.856 69.3153 167.511 69.6606C167.166 70.006 167.081 70.4428 167.081 70.7802H169.081C169.081 70.751 169.087 70.9128 168.925 71.0748C168.763 71.2369 168.601 71.2302 168.631 71.2302V69.2302ZM167.081 70.7802V126.22H169.081V70.7802H167.081ZM167.081 126.22C167.081 126.558 167.166 126.995 167.511 127.34C167.856 127.685 168.293 127.77 168.631 127.77V125.77C168.601 125.77 168.763 125.764 168.925 125.926C169.087 126.088 169.081 126.249 169.081 126.22H167.081ZM168.631 127.77H175.231V125.77H168.631V127.77ZM175.231 127.77C175.568 127.77 176.005 127.685 176.35 127.34C176.696 126.995 176.781 126.558 176.781 126.22H174.781C174.781 126.249 174.774 126.088 174.936 125.926C175.098 125.764 175.26 125.77 175.231 125.77V127.77ZM176.781 126.22V103.45H174.781V126.22H176.781ZM175.781 102.45H171.491V104.45H175.781V102.45ZM172.487 103.536L173.367 93.3059L171.374 93.1345L170.494 103.365L172.487 103.536ZM172.371 94.2202H186.231V92.2202H172.371V94.2202ZM185.231 93.2202V126.77H187.231V93.2202H185.231ZM215.799 134.69L216.492 135.411L216.499 135.404L216.506 135.397L215.799 134.69ZM194.019 134.69L193.312 135.397L193.319 135.404L193.326 135.411L194.019 134.69ZM191.159 70.2302H192.159V69.2302H191.159V70.2302ZM189.509 70.2302L188.515 70.1233L188.396 71.2302H189.509V70.2302ZM190.609 60.0002V59.0002H189.711L189.615 59.8933L190.609 60.0002ZM201.609 60.0002H202.609V59.0002H201.609V60.0002ZM208.209 60.2202V59.2202H207.209V60.2202H208.209ZM218.659 60.2202H219.659V59.2202H218.659V60.2202ZM217.659 127.21C217.659 130.066 216.784 132.291 215.092 133.983L216.506 135.397C218.628 133.276 219.659 130.514 219.659 127.21H217.659ZM215.106 133.969C213.416 135.594 211.186 136.44 208.319 136.44V138.44C211.612 138.44 214.369 137.453 216.492 135.411L215.106 133.969ZM208.319 136.44H201.499V138.44H208.319V136.44ZM201.499 136.44C198.632 136.44 196.402 135.594 194.712 133.969L193.326 135.411C195.45 137.453 198.206 138.44 201.499 138.44V136.44ZM194.726 133.983C193.034 132.291 192.159 130.066 192.159 127.21H190.159C190.159 130.514 191.191 133.276 193.312 135.397L194.726 133.983ZM192.159 127.21V70.2302H190.159V127.21H192.159ZM191.159 69.2302H189.509V71.2302H191.159V69.2302ZM190.503 70.3371L191.603 60.1071L189.615 59.8933L188.515 70.1233L190.503 70.3371ZM190.609 61.0002H201.609V59.0002H190.609V61.0002ZM200.609 60.0002V126.66H202.609V60.0002H200.609ZM200.609 126.66C200.609 126.998 200.694 127.435 201.04 127.78C201.385 128.125 201.822 128.21 202.159 128.21V126.21C202.13 126.21 202.292 126.204 202.454 126.366C202.616 126.528 202.609 126.689 202.609 126.66H200.609ZM202.159 128.21H207.659V126.21H202.159V128.21ZM207.659 128.21C207.997 128.21 208.433 128.125 208.779 127.78C209.124 127.435 209.209 126.998 209.209 126.66H207.209C207.209 126.689 207.203 126.528 207.365 126.366C207.527 126.204 207.688 126.21 207.659 126.21V128.21ZM209.209 126.66V60.2202H207.209V126.66H209.209ZM208.209 61.2202H218.659V59.2202H208.209V61.2202ZM217.659 60.2202V127.21H219.659V60.2202H217.659ZM224.138 137H223.138V138H224.138V137ZM224.138 70.2302H225.138V69.2302H224.138V70.2302ZM222.488 70.2302L221.493 70.1233L221.374 71.2302H222.488V70.2302ZM223.588 60.0002V59.0002H222.689L222.593 59.8933L223.588 60.0002ZM234.588 60.0002H235.588V59.0002H234.588V60.0002ZM234.588 137V138H235.588V137H234.588ZM225.138 137V70.2302H223.138V137H225.138ZM224.138 69.2302H222.488V71.2302H224.138V69.2302ZM223.482 70.3371L224.582 60.1071L222.593 59.8933L221.493 70.1233L223.482 70.3371ZM223.588 61.0002H234.588V59.0002H223.588V61.0002ZM233.588 60.0002V137H235.588V60.0002H233.588ZM234.588 136H224.138V138H234.588V136ZM267.743 126.77L268.74 126.856L268.833 125.77H267.743V126.77ZM266.863 137V138H267.781L267.86 137.086L266.863 137ZM240.573 137H239.573V138H240.573V137ZM240.573 70.2302H241.573V69.2302H240.573V70.2302ZM238.923 70.2302L237.929 70.1233L237.81 71.2302H238.923V70.2302ZM240.023 60.0002V59.0002H239.125L239.029 59.8933L240.023 60.0002ZM251.023 60.0002H252.023V59.0002H251.023V60.0002ZM251.023 126.77H250.023V127.77H251.023V126.77ZM266.747 126.685L265.867 136.915L267.86 137.086L268.74 126.856L266.747 126.685ZM266.863 136H240.573V138H266.863V136ZM241.573 137V70.2302H239.573V137H241.573ZM240.573 69.2302H238.923V71.2302H240.573V69.2302ZM239.918 70.3371L241.018 60.1071L239.029 59.8933L237.929 70.1233L239.918 70.3371ZM240.023 61.0002H251.023V59.0002H240.023V61.0002ZM250.023 60.0002V126.77H252.023V60.0002H250.023ZM251.023 127.77H267.743V125.77H251.023V127.77ZM282.068 60.0002H283.068V59.0002H282.068V60.0002ZM282.068 93.2202H281.068V94.2202H282.068V93.2202ZM288.338 93.2202V94.2202H289.338V93.2202H288.338ZM288.338 60.0002V59.0002H287.338V60.0002H288.338ZM298.788 60.0002H299.788V59.0002H298.788V60.0002ZM298.788 137V138H299.788V137H298.788ZM288.338 137H287.338V138H288.338V137ZM288.338 103.45H289.338V102.45H288.338V103.45ZM282.068 103.45V102.45H281.068V103.45H282.068ZM282.068 137V138H283.068V137H282.068ZM271.618 137H270.618V138H271.618V137ZM271.618 70.2302H272.618V69.2302H271.618V70.2302ZM269.968 70.2302L268.974 70.1233L268.855 71.2302H269.968V70.2302ZM271.068 60.0002V59.0002H270.17L270.074 59.8933L271.068 60.0002ZM281.068 60.0002V93.2202H283.068V60.0002H281.068ZM282.068 94.2202H288.338V92.2202H282.068V94.2202ZM289.338 93.2202V60.0002H287.338V93.2202H289.338ZM288.338 61.0002H298.788V59.0002H288.338V61.0002ZM297.788 60.0002V137H299.788V60.0002H297.788ZM298.788 136H288.338V138H298.788V136ZM289.338 137V103.45H287.338V137H289.338ZM288.338 102.45H282.068V104.45H288.338V102.45ZM281.068 103.45V137H283.068V103.45H281.068ZM282.068 136H271.618V138H282.068V136ZM272.618 137V70.2302H270.618V137H272.618ZM271.618 69.2302H269.968V71.2302H271.618V69.2302ZM270.962 70.3371L272.062 60.1071L270.074 59.8933L268.974 70.1233L270.962 70.3371ZM271.068 61.0002H282.068V59.0002H271.068V61.0002ZM328.694 126.77L329.691 126.856L329.784 125.77H328.694V126.77ZM327.814 137V138H328.732L328.811 137.086L327.814 137ZM303.724 137H302.724V138H303.724V137ZM303.724 70.2302H304.724V69.2302H303.724V70.2302ZM302.074 70.2302L301.08 70.1233L300.961 71.2302H302.074V70.2302ZM303.174 60.0002V59.0002H302.276L302.18 59.8933L303.174 60.0002ZM328.694 60.0002L329.689 60.1071L329.808 59.0002H328.694V60.0002ZM327.594 70.2302V71.2302H328.493L328.589 70.3371L327.594 70.2302ZM314.174 70.2302V69.2302H313.174V70.2302H314.174ZM314.174 93.3302H313.174V94.3302H314.174V93.3302ZM326.494 93.3302L327.489 93.4372L327.608 92.3302H326.494V93.3302ZM325.394 103.56V104.56H326.293L326.389 103.667L325.394 103.56ZM314.174 103.56V102.56H313.174V103.56H314.174ZM314.174 126.77H313.174V127.77H314.174V126.77ZM327.698 126.685L326.818 136.915L328.811 137.086L329.691 126.856L327.698 126.685ZM327.814 136H303.724V138H327.814V136ZM304.724 137V70.2302H302.724V137H304.724ZM303.724 69.2302H302.074V71.2302H303.724V69.2302ZM303.069 70.3371L304.169 60.1071L302.18 59.8933L301.08 70.1233L303.069 70.3371ZM303.174 61.0002H328.694V59.0002H303.174V61.0002ZM327.7 59.8933L326.6 70.1233L328.589 70.3371L329.689 60.1071L327.7 59.8933ZM327.594 69.2302H314.174V71.2302H327.594V69.2302ZM313.174 70.2302V93.3302H315.174V70.2302H313.174ZM314.174 94.3302H326.494V92.3302H314.174V94.3302ZM325.5 93.2233L324.4 103.453L326.389 103.667L327.489 93.4372L325.5 93.2233ZM325.394 102.56H314.174V104.56H325.394V102.56ZM313.174 103.56V126.77H315.174V103.56H313.174ZM314.174 127.77H328.694V125.77H314.174V127.77ZM331.413 70.2302L330.419 70.1233L330.3 71.2302H331.413V70.2302ZM332.513 60.0002V59.0002H331.615L331.519 59.8933L332.513 60.0002ZM357.373 62.8602L356.666 63.5673L356.673 63.5743L356.68 63.5811L357.373 62.8602ZM359.243 109.06L360.127 109.528L360.133 109.518L360.138 109.507L359.243 109.06ZM356.603 112.25L355.979 111.469L355.46 111.885L355.642 112.524L356.603 112.25ZM363.643 137V138H364.968L364.605 136.727L363.643 137ZM353.083 137L352.121 137.273L352.328 138H353.083V137ZM346.813 114.89L347.776 114.617L347.569 113.89H346.813V114.89ZM343.513 114.89V113.89H342.513V114.89H343.513ZM343.513 137V138H344.513V137H343.513ZM333.063 137H332.063V138H333.063V137ZM333.063 70.2302H334.063V69.2302H333.063V70.2302ZM343.513 70.2302V69.2302H342.513V70.2302H343.513ZM343.513 104.66H342.513V105.66H343.513V104.66ZM332.408 70.3371L333.508 60.1071L331.519 59.8933L330.419 70.1233L332.408 70.3371ZM332.513 61.0002H349.893V59.0002H332.513V61.0002ZM349.893 61.0002C352.749 61.0002 354.974 61.8753 356.666 63.5673L358.081 62.1531C355.959 60.0318 353.198 59.0002 349.893 59.0002V61.0002ZM356.68 63.5811C358.358 65.1946 359.233 67.3736 359.233 70.2302H361.233C361.233 66.9268 360.202 64.1925 358.067 62.1394L356.68 63.5811ZM359.233 70.2302V104.66H361.233V70.2302H359.233ZM359.233 104.66C359.233 106.133 358.933 107.444 358.349 108.613L360.138 109.507C360.874 108.036 361.233 106.414 361.233 104.66H359.233ZM358.36 108.592C357.764 109.718 356.972 110.675 355.979 111.469L357.228 113.031C358.435 112.065 359.403 110.896 360.127 109.528L358.36 108.592ZM355.642 112.524L362.682 137.274L364.605 136.727L357.565 111.977L355.642 112.524ZM363.643 136H353.083V138H363.643V136ZM354.046 136.727L347.776 114.617L345.851 115.163L352.121 137.273L354.046 136.727ZM346.813 113.89H343.513V115.89H346.813V113.89ZM342.513 114.89V137H344.513V114.89H342.513ZM343.513 136H333.063V138H343.513V136ZM334.063 137V70.2302H332.063V137H334.063ZM333.063 69.2302H331.413V71.2302H333.063V69.2302ZM349.233 69.2302H343.513V71.2302H349.233V69.2302ZM342.513 70.2302V104.66H344.513V70.2302H342.513ZM343.513 105.66H349.233V103.66H343.513V105.66ZM349.233 105.66C349.571 105.66 350.008 105.575 350.353 105.23C350.698 104.885 350.783 104.448 350.783 104.11H348.783C348.783 104.139 348.777 103.978 348.939 103.816C349.101 103.654 349.263 103.66 349.233 103.66V105.66ZM350.783 104.11V70.7802H348.783V104.11H350.783ZM350.783 70.7802C350.783 70.4428 350.698 70.006 350.353 69.6606C350.008 69.3153 349.571 69.2302 349.233 69.2302V71.2302C349.263 71.2302 349.101 71.2369 348.939 71.0748C348.777 70.9128 348.783 70.751 348.783 70.7802H350.783ZM366.364 137H365.364V138H366.364V137ZM366.364 70.2302H367.364V69.2302H366.364V70.2302ZM364.714 70.2302L363.72 70.1233L363.601 71.2302H364.714V70.2302ZM365.814 60.0002V59.0002H364.916L364.82 59.8933L365.814 60.0002ZM382.974 60.0002L383.966 59.8739L383.855 59.0002H382.974V60.0002ZM388.254 101.47L387.262 101.597L389.246 101.599L388.254 101.47ZM393.644 60.0002V59.0002H392.766L392.653 59.8713L393.644 60.0002ZM410.474 60.0002H411.474V59.0002H410.474V60.0002ZM410.474 137V138H411.474V137H410.474ZM400.024 137H399.024V138H400.024V137ZM400.024 77.1602H401.024L399.038 76.9958L400.024 77.1602ZM391.884 126V127H392.731L392.871 126.165L391.884 126ZM384.734 126L383.748 126.165L383.887 127H384.734V126ZM376.814 78.4802L377.801 78.3158L375.814 78.4802H376.814ZM376.814 137V138H377.814V137H376.814ZM367.364 137V70.2302H365.364V137H367.364ZM366.364 69.2302H364.714V71.2302H366.364V69.2302ZM365.709 70.3371L366.809 60.1071L364.82 59.8933L363.72 70.1233L365.709 70.3371ZM365.814 61.0002H382.974V59.0002H365.814V61.0002ZM381.982 60.1265L387.262 101.597L389.246 101.344L383.966 59.8739L381.982 60.1265ZM389.246 101.599L394.636 60.1291L392.653 59.8713L387.263 101.341L389.246 101.599ZM393.644 61.0002H410.474V59.0002H393.644V61.0002ZM409.474 60.0002V137H411.474V60.0002H409.474ZM410.474 136H400.024V138H410.474V136ZM401.024 137V77.1602H399.024V137H401.024ZM399.038 76.9958L390.898 125.836L392.871 126.165L401.011 77.3246L399.038 76.9958ZM391.884 125H384.734V127H391.884V125ZM385.721 125.836L377.801 78.3158L375.828 78.6446L383.748 126.165L385.721 125.836ZM375.814 78.4802V137H377.814V78.4802H375.814ZM376.814 136H366.364V138H376.814V136ZM440.413 126.77L441.409 126.856L441.503 125.77H440.413V126.77ZM439.533 137V138H440.451L440.529 137.086L439.533 137ZM415.443 137H414.443V138H415.443V137ZM415.443 70.2302H416.443V69.2302H415.443V70.2302ZM413.793 70.2302L412.799 70.1233L412.68 71.2302H413.793V70.2302ZM414.893 60.0002V59.0002H413.995L413.899 59.8933L414.893 60.0002ZM440.413 60.0002L441.407 60.1071L441.526 59.0002H440.413V60.0002ZM439.313 70.2302V71.2302H440.211L440.307 70.3371L439.313 70.2302ZM425.893 70.2302V69.2302H424.893V70.2302H425.893ZM425.893 93.3302H424.893V94.3302H425.893V93.3302ZM438.213 93.3302L439.207 93.4372L439.326 92.3302H438.213V93.3302ZM437.113 103.56V104.56H438.011L438.107 103.667L437.113 103.56ZM425.893 103.56V102.56H424.893V103.56H425.893ZM425.893 126.77H424.893V127.77H425.893V126.77ZM439.417 126.685L438.537 136.915L440.529 137.086L441.409 126.856L439.417 126.685ZM439.533 136H415.443V138H439.533V136ZM416.443 137V70.2302H414.443V137H416.443ZM415.443 69.2302H413.793V71.2302H415.443V69.2302ZM414.787 70.3371L415.887 60.1071L413.899 59.8933L412.799 70.1233L414.787 70.3371ZM414.893 61.0002H440.413V59.0002H414.893V61.0002ZM439.419 59.8933L438.319 70.1233L440.307 70.3371L441.407 60.1071L439.419 59.8933ZM439.313 69.2302H425.893V71.2302H439.313V69.2302ZM424.893 70.2302V93.3302H426.893V70.2302H424.893ZM425.893 94.3302H438.213V92.3302H425.893V94.3302ZM437.219 93.2233L436.119 103.453L438.107 103.667L439.207 93.4372L437.219 93.2233ZM437.113 102.56H425.893V104.56H437.113V102.56ZM424.893 103.56V126.77H426.893V103.56H424.893ZM425.893 127.77H440.413V125.77H425.893V127.77Z" fill="white"/>
<path d="M280.249 133.21L279.549 139.72H272.409V161H265.759V118.51H264.709L265.409 112H281.649L280.949 118.51H272.409V133.21H280.249ZM300.311 154.49L299.751 161H284.421V118.51H283.371L284.071 112H300.311L299.611 118.51H291.071V133.21H298.911L298.211 139.72H291.071V154.49H300.311ZM303.092 161V118.51H302.042L302.742 112H309.742V161H303.092ZM329.091 154.49L328.531 161H313.201V118.51H312.151L312.851 112H329.091L328.391 118.51H319.851V133.21H327.691L326.991 139.72H319.851V154.49H329.091ZM330.821 118.51L331.521 112H342.581C344.541 112 346.128 112.607 347.341 113.82C348.554 114.987 349.161 116.55 349.161 118.51V140.42C349.161 141.447 348.951 142.38 348.531 143.22C348.111 144.014 347.551 144.69 346.851 145.25L351.331 161H344.611L340.621 146.93H338.521V161H331.871V118.51H330.821ZM342.161 118.51H338.521V140.42H342.161C342.394 140.42 342.511 140.304 342.511 140.07V118.86C342.511 118.627 342.394 118.51 342.161 118.51ZM372.291 112V133.14H376.281V112H382.931V161H376.281V139.65H372.291V161H365.641V118.51H364.591L365.291 112H372.291ZM403.922 154.77C403.922 156.73 403.315 158.317 402.102 159.53C400.889 160.697 399.302 161.28 397.342 161.28H393.002C391.042 161.28 389.455 160.697 388.242 159.53C387.029 158.317 386.422 156.73 386.422 154.77V118.51H385.372L386.072 112H393.072V154.42C393.072 154.654 393.189 154.77 393.422 154.77H396.922C397.155 154.77 397.272 154.654 397.272 154.42V112.14H403.922V154.77ZM421.206 133.21L420.506 139.72H413.366V161H406.716V118.51H405.666L406.366 112H422.606L421.906 118.51H413.366V133.21H421.206ZM439.869 133.21L439.169 139.72H432.029V161H425.379V118.51H424.329L425.029 112H441.269L440.569 118.51H432.029V133.21H439.869Z" fill="#0073A5" fill-opacity="0.5"/>
<path d="M280.249 133.21L281.244 133.317L281.363 132.21H280.249V133.21ZM279.549 139.72V140.72H280.448L280.544 139.827L279.549 139.72ZM272.409 139.72V138.72H271.409V139.72H272.409ZM272.409 161V162H273.409V161H272.409ZM265.759 161H264.759V162H265.759V161ZM265.759 118.51H266.759V117.51H265.759V118.51ZM264.709 118.51L263.715 118.404L263.596 119.51H264.709V118.51ZM265.409 112V111H264.511L264.415 111.894L265.409 112ZM281.649 112L282.644 112.107L282.763 111H281.649V112ZM280.949 118.51V119.51H281.848L281.944 118.617L280.949 118.51ZM272.409 118.51V117.51H271.409V118.51H272.409ZM272.409 133.21H271.409V134.21H272.409V133.21ZM279.255 133.104L278.555 139.614L280.544 139.827L281.244 133.317L279.255 133.104ZM279.549 138.72H272.409V140.72H279.549V138.72ZM271.409 139.72V161H273.409V139.72H271.409ZM272.409 160H265.759V162H272.409V160ZM266.759 161V118.51H264.759V161H266.759ZM265.759 117.51H264.709V119.51H265.759V117.51ZM265.704 118.617L266.404 112.107L264.415 111.894L263.715 118.404L265.704 118.617ZM265.409 113H281.649V111H265.409V113ZM280.655 111.894L279.955 118.404L281.944 118.617L282.644 112.107L280.655 111.894ZM280.949 117.51H272.409V119.51H280.949V117.51ZM271.409 118.51V133.21H273.409V118.51H271.409ZM272.409 134.21H280.249V132.21H272.409V134.21ZM300.311 154.49L301.308 154.576L301.401 153.49H300.311V154.49ZM299.751 161V162H300.669L300.748 161.086L299.751 161ZM284.421 161H283.421V162H284.421V161ZM284.421 118.51H285.421V117.51H284.421V118.51ZM283.371 118.51L282.377 118.404L282.258 119.51H283.371V118.51ZM284.071 112V111H283.173L283.077 111.894L284.071 112ZM300.311 112L301.306 112.107L301.425 111H300.311V112ZM299.611 118.51V119.51H300.51L300.606 118.617L299.611 118.51ZM291.071 118.51V117.51H290.071V118.51H291.071ZM291.071 133.21H290.071V134.21H291.071V133.21ZM298.911 133.21L299.906 133.317L300.025 132.21H298.911V133.21ZM298.211 139.72V140.72H299.11L299.206 139.827L298.211 139.72ZM291.071 139.72V138.72H290.071V139.72H291.071ZM291.071 154.49H290.071V155.49H291.071V154.49ZM299.315 154.405L298.755 160.915L300.748 161.086L301.308 154.576L299.315 154.405ZM299.751 160H284.421V162H299.751V160ZM285.421 161V118.51H283.421V161H285.421ZM284.421 117.51H283.371V119.51H284.421V117.51ZM284.366 118.617L285.066 112.107L283.077 111.894L282.377 118.404L284.366 118.617ZM284.071 113H300.311V111H284.071V113ZM299.317 111.894L298.617 118.404L300.606 118.617L301.306 112.107L299.317 111.894ZM299.611 117.51H291.071V119.51H299.611V117.51ZM290.071 118.51V133.21H292.071V118.51H290.071ZM291.071 134.21H298.911V132.21H291.071V134.21ZM297.917 133.104L297.217 139.614L299.206 139.827L299.906 133.317L297.917 133.104ZM298.211 138.72H291.071V140.72H298.211V138.72ZM290.071 139.72V154.49H292.071V139.72H290.071ZM291.071 155.49H300.311V153.49H291.071V155.49ZM303.092 161H302.092V162H303.092V161ZM303.092 118.51H304.092V117.51H303.092V118.51ZM302.042 118.51L301.048 118.404L300.929 119.51H302.042V118.51ZM302.742 112V111H301.844L301.748 111.894L302.742 112ZM309.742 112H310.742V111H309.742V112ZM309.742 161V162H310.742V161H309.742ZM304.092 161V118.51H302.092V161H304.092ZM303.092 117.51H302.042V119.51H303.092V117.51ZM303.036 118.617L303.736 112.107L301.748 111.894L301.048 118.404L303.036 118.617ZM302.742 113H309.742V111H302.742V113ZM308.742 112V161H310.742V112H308.742ZM309.742 160H303.092V162H309.742V160ZM329.091 154.49L330.087 154.576L330.18 153.49H329.091V154.49ZM328.531 161V162H329.448L329.527 161.086L328.531 161ZM313.201 161H312.201V162H313.201V161ZM313.201 118.51H314.201V117.51H313.201V118.51ZM312.151 118.51L311.157 118.404L311.037 119.51H312.151V118.51ZM312.851 112V111H311.953L311.857 111.894L312.851 112ZM329.091 112L330.085 112.107L330.204 111H329.091V112ZM328.391 118.51V119.51H329.289L329.385 118.617L328.391 118.51ZM319.851 118.51V117.51H318.851V118.51H319.851ZM319.851 133.21H318.851V134.21H319.851V133.21ZM327.691 133.21L328.685 133.317L328.804 132.21H327.691V133.21ZM326.991 139.72V140.72H327.889L327.985 139.827L326.991 139.72ZM319.851 139.72V138.72H318.851V139.72H319.851ZM319.851 154.49H318.851V155.49H319.851V154.49ZM328.094 154.405L327.534 160.915L329.527 161.086L330.087 154.576L328.094 154.405ZM328.531 160H313.201V162H328.531V160ZM314.201 161V118.51H312.201V161H314.201ZM313.201 117.51H312.151V119.51H313.201V117.51ZM313.145 118.617L313.845 112.107L311.857 111.894L311.157 118.404L313.145 118.617ZM312.851 113H329.091V111H312.851V113ZM328.097 111.894L327.397 118.404L329.385 118.617L330.085 112.107L328.097 111.894ZM328.391 117.51H319.851V119.51H328.391V117.51ZM318.851 118.51V133.21H320.851V118.51H318.851ZM319.851 134.21H327.691V132.21H319.851V134.21ZM326.697 133.104L325.997 139.614L327.985 139.827L328.685 133.317L326.697 133.104ZM326.991 138.72H319.851V140.72H326.991V138.72ZM318.851 139.72V154.49H320.851V139.72H318.851ZM319.851 155.49H329.091V153.49H319.851V155.49ZM330.821 118.51L329.827 118.404L329.708 119.51H330.821V118.51ZM331.521 112V111H330.623L330.527 111.894L331.521 112ZM347.341 113.82L346.634 114.528L346.641 114.535L346.648 114.541L347.341 113.82ZM348.531 143.22L349.415 143.688L349.42 143.678L349.426 143.668L348.531 143.22ZM346.851 145.25L346.226 144.47L345.707 144.885L345.889 145.524L346.851 145.25ZM351.331 161V162H352.655L352.293 160.727L351.331 161ZM344.611 161L343.649 161.273L343.855 162H344.611V161ZM340.621 146.93L341.583 146.658L341.377 145.93H340.621V146.93ZM338.521 146.93V145.93H337.521V146.93H338.521ZM338.521 161V162H339.521V161H338.521ZM331.871 161H330.871V162H331.871V161ZM331.871 118.51H332.871V117.51H331.871V118.51ZM338.521 118.51V117.51H337.521V118.51H338.521ZM338.521 140.42H337.521V141.42H338.521V140.42ZM331.815 118.617L332.515 112.107L330.527 111.894L329.827 118.404L331.815 118.617ZM331.521 113H342.581V111H331.521V113ZM342.581 113C344.317 113 345.635 113.529 346.634 114.528L348.048 113.113C346.62 111.685 344.765 111 342.581 111V113ZM346.648 114.541C347.633 115.488 348.161 116.774 348.161 118.51H350.161C350.161 116.327 349.476 114.486 348.034 113.1L346.648 114.541ZM348.161 118.51V140.42H350.161V118.51H348.161ZM348.161 140.42C348.161 141.307 347.981 142.085 347.637 142.773L349.426 143.668C349.921 142.676 350.161 141.588 350.161 140.42H348.161ZM347.647 142.753C347.291 143.425 346.819 143.995 346.226 144.47L347.476 146.031C348.283 145.386 348.931 144.602 349.415 143.688L347.647 142.753ZM345.889 145.524L350.369 161.274L352.293 160.727L347.813 144.977L345.889 145.524ZM351.331 160H344.611V162H351.331V160ZM345.573 160.728L341.583 146.658L339.659 147.203L343.649 161.273L345.573 160.728ZM340.621 145.93H338.521V147.93H340.621V145.93ZM337.521 146.93V161H339.521V146.93H337.521ZM338.521 160H331.871V162H338.521V160ZM332.871 161V118.51H330.871V161H332.871ZM331.871 117.51H330.821V119.51H331.871V117.51ZM342.161 117.51H338.521V119.51H342.161V117.51ZM337.521 118.51V140.42H339.521V118.51H337.521ZM338.521 141.42H342.161V139.42H338.521V141.42ZM342.161 141.42C342.432 141.42 342.819 141.352 343.131 141.04C343.443 140.728 343.511 140.341 343.511 140.07H341.511C341.511 140.033 341.521 139.821 341.716 139.626C341.912 139.431 342.124 139.42 342.161 139.42V141.42ZM343.511 140.07V118.86H341.511V140.07H343.511ZM343.511 118.86C343.511 118.59 343.443 118.203 343.131 117.891C342.819 117.579 342.432 117.51 342.161 117.51V119.51C342.124 119.51 341.912 119.5 341.716 119.305C341.521 119.11 341.511 118.898 341.511 118.86H343.511ZM372.291 112H373.291V111H372.291V112ZM372.291 133.14H371.291V134.14H372.291V133.14ZM376.281 133.14V134.14H377.281V133.14H376.281ZM376.281 112V111H375.281V112H376.281ZM382.931 112H383.931V111H382.931V112ZM382.931 161V162H383.931V161H382.931ZM376.281 161H375.281V162H376.281V161ZM376.281 139.65H377.281V138.65H376.281V139.65ZM372.291 139.65V138.65H371.291V139.65H372.291ZM372.291 161V162H373.291V161H372.291ZM365.641 161H364.641V162H365.641V161ZM365.641 118.51H366.641V117.51H365.641V118.51ZM364.591 118.51L363.596 118.404L363.477 119.51H364.591V118.51ZM365.291 112V111H364.392L364.296 111.894L365.291 112ZM371.291 112V133.14H373.291V112H371.291ZM372.291 134.14H376.281V132.14H372.291V134.14ZM377.281 133.14V112H375.281V133.14H377.281ZM376.281 113H382.931V111H376.281V113ZM381.931 112V161H383.931V112H381.931ZM382.931 160H376.281V162H382.931V160ZM377.281 161V139.65H375.281V161H377.281ZM376.281 138.65H372.291V140.65H376.281V138.65ZM371.291 139.65V161H373.291V139.65H371.291ZM372.291 160H365.641V162H372.291V160ZM366.641 161V118.51H364.641V161H366.641ZM365.641 117.51H364.591V119.51H365.641V117.51ZM365.585 118.617L366.285 112.107L364.296 111.894L363.596 118.404L365.585 118.617ZM365.291 113H372.291V111H365.291V113ZM402.102 159.53L402.795 160.251L402.802 160.245L402.809 160.238L402.102 159.53ZM388.242 159.53L387.535 160.238L387.542 160.245L387.549 160.251L388.242 159.53ZM386.422 118.51H387.422V117.51H386.422V118.51ZM385.372 118.51L384.378 118.404L384.259 119.51H385.372V118.51ZM386.072 112V111H385.174L385.078 111.894L386.072 112ZM393.072 112H394.072V111H393.072V112ZM397.272 112.14V111.14H396.272V112.14H397.272ZM403.922 112.14H404.922V111.14H403.922V112.14ZM402.922 154.77C402.922 156.506 402.393 157.825 401.395 158.823L402.809 160.238C404.237 158.81 404.922 156.955 404.922 154.77H402.922ZM401.409 158.81C400.412 159.768 399.089 160.28 397.342 160.28V162.28C399.515 162.28 401.365 161.626 402.795 160.251L401.409 158.81ZM397.342 160.28H393.002V162.28H397.342V160.28ZM393.002 160.28C391.255 160.28 389.932 159.768 388.935 158.81L387.549 160.251C388.979 161.626 390.829 162.28 393.002 162.28V160.28ZM388.949 158.823C387.95 157.825 387.422 156.506 387.422 154.77H385.422C385.422 156.955 386.107 158.81 387.535 160.238L388.949 158.823ZM387.422 154.77V118.51H385.422V154.77H387.422ZM386.422 117.51H385.372V119.51H386.422V117.51ZM386.366 118.617L387.066 112.107L385.078 111.894L384.378 118.404L386.366 118.617ZM386.072 113H393.072V111H386.072V113ZM392.072 112V154.42H394.072V112H392.072ZM392.072 154.42C392.072 154.691 392.14 155.078 392.452 155.39C392.764 155.702 393.151 155.77 393.422 155.77V153.77C393.459 153.77 393.671 153.781 393.866 153.976C394.062 154.171 394.072 154.383 394.072 154.42H392.072ZM393.422 155.77H396.922V153.77H393.422V155.77ZM396.922 155.77C397.193 155.77 397.579 155.702 397.891 155.39C398.203 155.078 398.272 154.691 398.272 154.42H396.272C396.272 154.383 396.282 154.171 396.477 153.976C396.673 153.781 396.884 153.77 396.922 153.77V155.77ZM398.272 154.42V112.14H396.272V154.42H398.272ZM397.272 113.14H403.922V111.14H397.272V113.14ZM402.922 112.14V154.77H404.922V112.14H402.922ZM421.206 133.21L422.201 133.317L422.32 132.21H421.206V133.21ZM420.506 139.72V140.72H421.405L421.501 139.827L420.506 139.72ZM413.366 139.72V138.72H412.366V139.72H413.366ZM413.366 161V162H414.366V161H413.366ZM406.716 161H405.716V162H406.716V161ZM406.716 118.51H407.716V117.51H406.716V118.51ZM405.666 118.51L404.672 118.404L404.553 119.51H405.666V118.51ZM406.366 112V111H405.468L405.372 111.894L406.366 112ZM422.606 112L423.601 112.107L423.72 111H422.606V112ZM421.906 118.51V119.51H422.805L422.901 118.617L421.906 118.51ZM413.366 118.51V117.51H412.366V118.51H413.366ZM413.366 133.21H412.366V134.21H413.366V133.21ZM420.212 133.104L419.512 139.614L421.501 139.827L422.201 133.317L420.212 133.104ZM420.506 138.72H413.366V140.72H420.506V138.72ZM412.366 139.72V161H414.366V139.72H412.366ZM413.366 160H406.716V162H413.366V160ZM407.716 161V118.51H405.716V161H407.716ZM406.716 117.51H405.666V119.51H406.716V117.51ZM406.661 118.617L407.361 112.107L405.372 111.894L404.672 118.404L406.661 118.617ZM406.366 113H422.606V111H406.366V113ZM421.612 111.894L420.912 118.404L422.901 118.617L423.601 112.107L421.612 111.894ZM421.906 117.51H413.366V119.51H421.906V117.51ZM412.366 118.51V133.21H414.366V118.51H412.366ZM413.366 134.21H421.206V132.21H413.366V134.21ZM439.869 133.21L440.863 133.317L440.982 132.21H439.869V133.21ZM439.169 139.72V140.72H440.067L440.163 139.827L439.169 139.72ZM432.029 139.72V138.72H431.029V139.72H432.029ZM432.029 161V162H433.029V161H432.029ZM425.379 161H424.379V162H425.379V161ZM425.379 118.51H426.379V117.51H425.379V118.51ZM424.329 118.51L423.334 118.404L423.215 119.51H424.329V118.51ZM425.029 112V111H424.13L424.034 111.894L425.029 112ZM441.269 112L442.263 112.107L442.382 111H441.269V112ZM440.569 118.51V119.51H441.467L441.563 118.617L440.569 118.51ZM432.029 118.51V117.51H431.029V118.51H432.029ZM432.029 133.21H431.029V134.21H432.029V133.21ZM438.874 133.104L438.174 139.614L440.163 139.827L440.863 133.317L438.874 133.104ZM439.169 138.72H432.029V140.72H439.169V138.72ZM431.029 139.72V161H433.029V139.72H431.029ZM432.029 160H425.379V162H432.029V160ZM426.379 161V118.51H424.379V161H426.379ZM425.379 117.51H424.329V119.51H425.379V117.51ZM425.323 118.617L426.023 112.107L424.034 111.894L423.334 118.404L425.323 118.617ZM425.029 113H441.269V111H425.029V113ZM440.274 111.894L439.574 118.404L441.563 118.617L442.263 112.107L440.274 111.894ZM440.569 117.51H432.029V119.51H440.569V117.51ZM431.029 118.51V133.21H433.029V118.51H431.029ZM432.029 134.21H439.869V132.21H432.029V134.21Z" fill="white"/>
</svg>
