<svg width="288" height="129" viewBox="0 0 288 129" fill="none" xmlns="http://www.w3.org/2000/svg">
<path d="M31.2307 83.77C31.2307 86.85 30.2773 89.3433 28.3707 91.25C26.464 93.0833 23.9707 94 20.8907 94H12.9707C9.89066 94 7.39733 93.0833 5.49066 91.25C3.584 89.3433 2.63066 86.85 2.63066 83.77V27.23C2.63066 24.15 3.584 21.6933 5.49066 19.86C7.39733 17.9533 9.89066 17 12.9707 17H20.8907C23.9707 17 26.464 17.9533 28.3707 19.86C30.2773 21.6933 31.2307 24.15 31.2307 27.23V44.83H20.7807V27.78C20.7807 27.4133 20.5973 27.23 20.2307 27.23H13.6307C13.264 27.23 13.0807 27.4133 13.0807 27.78V83.22C13.0807 83.5867 13.264 83.77 13.6307 83.77H20.2307C20.5973 83.77 20.7807 83.5867 20.7807 83.22V60.45H16.4907L17.3707 50.22H31.2307V83.77ZM63.6592 84.21C63.6592 87.29 62.7058 89.7833 60.7992 91.69C58.8925 93.5233 56.3992 94.44 53.3192 94.44H46.4992C43.4192 94.44 40.9258 93.5233 39.0192 91.69C37.1125 89.7833 36.1592 87.29 36.1592 84.21V27.23H34.5092L35.6092 17H46.6092V83.66C46.6092 84.0267 46.7925 84.21 47.1592 84.21H52.6592C53.0258 84.21 53.2092 84.0267 53.2092 83.66V17.22H63.6592V84.21ZM69.1377 94V27.23H67.4877L68.5877 17H79.5877V94H69.1377ZM112.743 83.77L111.863 94H85.5732V27.23H83.9232L85.0232 17H96.0232V83.77H112.743ZM127.068 17V50.22H133.338V17H143.788V94H133.338V60.45H127.068V94H116.618V27.23H114.968L116.068 17H127.068ZM173.694 83.77L172.814 94H148.724V27.23H147.074L148.174 17H173.694L172.594 27.23H159.174V50.33H171.494L170.394 60.56H159.174V83.77H173.694ZM176.413 27.23L177.513 17H194.893C197.973 17 200.467 17.9533 202.373 19.86C204.28 21.6933 205.233 24.15 205.233 27.23V61.66C205.233 63.2733 204.903 64.74 204.243 66.06C203.583 67.3067 202.703 68.37 201.603 69.25L208.643 94H198.083L191.813 71.89H188.513V94H178.063V27.23H176.413ZM194.233 27.23H188.513V61.66H194.233C194.6 61.66 194.783 61.4767 194.783 61.11V27.78C194.783 27.4133 194.6 27.23 194.233 27.23ZM211.364 94V27.23H209.714L210.814 17H227.974L233.254 58.47L238.644 17H255.474V94H245.024V34.16L236.884 83H229.734L221.814 35.48V94H211.364ZM285.413 83.77L284.533 94H260.443V27.23H258.793L259.893 17H285.413L284.313 27.23H270.893V50.33H283.213L282.113 60.56H270.893V83.77H285.413Z" fill="#D9D9D9"/>
<path d="M28.3707 91.25L29.0638 91.9708L29.0708 91.964L29.0778 91.9571L28.3707 91.25ZM5.49066 91.25L4.78356 91.9571L4.79049 91.964L4.79756 91.9708L5.49066 91.25ZM5.49066 19.86L6.18377 20.5808L6.19084 20.574L6.19777 20.5671L5.49066 19.86ZM28.3707 19.86L27.6636 20.5671L27.6705 20.574L27.6776 20.5808L28.3707 19.86ZM31.2307 44.83V45.83H32.2307V44.83H31.2307ZM20.7807 44.83H19.7807V45.83H20.7807V44.83ZM20.7807 60.45H21.7807V59.45H20.7807V60.45ZM16.4907 60.45L15.4943 60.3643L15.401 61.45H16.4907V60.45ZM17.3707 50.22V49.22H16.453L16.3743 50.1343L17.3707 50.22ZM31.2307 50.22H32.2307V49.22H31.2307V50.22ZM30.2307 83.77C30.2307 86.6258 29.3556 88.8509 27.6636 90.5429L29.0778 91.9571C31.1991 89.8358 32.2307 87.0742 32.2307 83.77H30.2307ZM27.6776 90.5292C25.9877 92.1541 23.7579 93 20.8907 93V95C24.1835 95 26.9403 94.0126 29.0638 91.9708L27.6776 90.5292ZM20.8907 93H12.9707V95H20.8907V93ZM12.9707 93C10.1035 93 7.87367 92.1541 6.18377 90.5292L4.79756 91.9708C6.92099 94.0126 9.67787 95 12.9707 95V93ZM6.19777 90.5429C4.50577 88.8509 3.63066 86.6258 3.63066 83.77H1.63066C1.63066 87.0742 2.66223 89.8358 4.78356 91.9571L6.19777 90.5429ZM3.63066 83.77V27.23H1.63066V83.77H3.63066ZM3.63066 27.23C3.63066 24.3734 4.50567 22.1944 6.18377 20.5808L4.79756 19.1392C2.66233 21.1923 1.63066 23.9266 1.63066 27.23H3.63066ZM6.19777 20.5671C7.88978 18.8751 10.1149 18 12.9707 18V16C9.66644 16 6.90489 17.0316 4.78356 19.1529L6.19777 20.5671ZM12.9707 18H20.8907V16H12.9707V18ZM20.8907 18C23.7464 18 25.9716 18.8751 27.6636 20.5671L29.0778 19.1529C26.9564 17.0316 24.1949 16 20.8907 16V18ZM27.6776 20.5808C29.3557 22.1944 30.2307 24.3734 30.2307 27.23H32.2307C32.2307 23.9266 31.199 21.1923 29.0638 19.1392L27.6776 20.5808ZM30.2307 27.23V44.83H32.2307V27.23H30.2307ZM31.2307 43.83H20.7807V45.83H31.2307V43.83ZM21.7807 44.83V27.78H19.7807V44.83H21.7807ZM21.7807 27.78C21.7807 27.4425 21.6956 27.0057 21.3503 26.6604C21.0049 26.315 20.5681 26.23 20.2307 26.23V28.23C20.2599 28.23 20.0981 28.2366 19.9361 28.0746C19.774 27.9126 19.7807 27.7508 19.7807 27.78H21.7807ZM20.2307 26.23H13.6307V28.23H20.2307V26.23ZM13.6307 26.23C13.2932 26.23 12.8564 26.315 12.5111 26.6604C12.1657 27.0057 12.0807 27.4425 12.0807 27.78H14.0807C14.0807 27.7508 14.0873 27.9126 13.9253 28.0746C13.7633 28.2366 13.6015 28.23 13.6307 28.23V26.23ZM12.0807 27.78V83.22H14.0807V27.78H12.0807ZM12.0807 83.22C12.0807 83.5575 12.1657 83.9943 12.5111 84.3396C12.8564 84.685 13.2932 84.77 13.6307 84.77V82.77C13.6015 82.77 13.7633 82.7634 13.9253 82.9254C14.0873 83.0874 14.0807 83.2492 14.0807 83.22H12.0807ZM13.6307 84.77H20.2307V82.77H13.6307V84.77ZM20.2307 84.77C20.5681 84.77 21.0049 84.685 21.3503 84.3396C21.6956 83.9943 21.7807 83.5575 21.7807 83.22H19.7807C19.7807 83.2492 19.774 83.0874 19.9361 82.9254C20.0981 82.7634 20.2599 82.77 20.2307 82.77V84.77ZM21.7807 83.22V60.45H19.7807V83.22H21.7807ZM20.7807 59.45H16.4907V61.45H20.7807V59.45ZM17.487 60.5357L18.367 50.3057L16.3743 50.1343L15.4943 60.3643L17.487 60.5357ZM17.3707 51.22H31.2307V49.22H17.3707V51.22ZM30.2307 50.22V83.77H32.2307V50.22H30.2307ZM60.7992 91.69L61.4923 92.4108L61.4994 92.404L61.5063 92.3971L60.7992 91.69ZM39.0192 91.69L38.3121 92.3971L38.319 92.404L38.3261 92.4108L39.0192 91.69ZM36.1592 27.23H37.1592V26.23H36.1592V27.23ZM34.5092 27.23L33.5149 27.1231L33.3959 28.23H34.5092V27.23ZM35.6092 17V16H34.7109L34.6149 16.8931L35.6092 17ZM46.6092 17H47.6092V16H46.6092V17ZM53.2092 17.22V16.22H52.2092V17.22H53.2092ZM63.6592 17.22H64.6592V16.22H63.6592V17.22ZM62.6592 84.21C62.6592 87.0658 61.7841 89.2909 60.0921 90.9829L61.5063 92.3971C63.6276 90.2758 64.6592 87.5142 64.6592 84.21H62.6592ZM60.1061 90.9692C58.4162 92.5941 56.1864 93.44 53.3192 93.44V95.44C56.612 95.44 59.3689 94.4526 61.4923 92.4108L60.1061 90.9692ZM53.3192 93.44H46.4992V95.44H53.3192V93.44ZM46.4992 93.44C43.632 93.44 41.4022 92.5941 39.7123 90.9692L38.3261 92.4108C40.4495 94.4526 43.2064 95.44 46.4992 95.44V93.44ZM39.7263 90.9829C38.0343 89.2909 37.1592 87.0658 37.1592 84.21H35.1592C35.1592 87.5142 36.1907 90.2758 38.3121 92.3971L39.7263 90.9829ZM37.1592 84.21V27.23H35.1592V84.21H37.1592ZM36.1592 26.23H34.5092V28.23H36.1592V26.23ZM35.5034 27.3369L36.6034 17.1069L34.6149 16.8931L33.5149 27.1231L35.5034 27.3369ZM35.6092 18H46.6092V16H35.6092V18ZM45.6092 17V83.66H47.6092V17H45.6092ZM45.6092 83.66C45.6092 83.9975 45.6942 84.4343 46.0396 84.7796C46.3849 85.125 46.8217 85.21 47.1592 85.21V83.21C47.13 83.21 47.2918 83.2034 47.4538 83.3654C47.6158 83.5274 47.6092 83.6892 47.6092 83.66H45.6092ZM47.1592 85.21H52.6592V83.21H47.1592V85.21ZM52.6592 85.21C52.9967 85.21 53.4334 85.125 53.7788 84.7796C54.1241 84.4343 54.2092 83.9975 54.2092 83.66H52.2092C52.2092 83.6892 52.2026 83.5274 52.3646 83.3654C52.5266 83.2034 52.6884 83.21 52.6592 83.21V85.21ZM54.2092 83.66V17.22H52.2092V83.66H54.2092ZM53.2092 18.22H63.6592V16.22H53.2092V18.22ZM62.6592 17.22V84.21H64.6592V17.22H62.6592ZM69.1377 94H68.1377V95H69.1377V94ZM69.1377 27.23H70.1377V26.23H69.1377V27.23ZM67.4877 27.23L66.4934 27.1231L66.3744 28.23H67.4877V27.23ZM68.5877 17V16H67.6895L67.5934 16.8931L68.5877 17ZM79.5877 17H80.5877V16H79.5877V17ZM79.5877 94V95H80.5877V94H79.5877ZM70.1377 94V27.23H68.1377V94H70.1377ZM69.1377 26.23H67.4877V28.23H69.1377V26.23ZM68.482 27.3369L69.582 17.1069L67.5934 16.8931L66.4934 27.1231L68.482 27.3369ZM68.5877 18H79.5877V16H68.5877V18ZM78.5877 17V94H80.5877V17H78.5877ZM79.5877 93H69.1377V95H79.5877V93ZM112.743 83.77L113.74 83.8557L113.833 82.77H112.743V83.77ZM111.863 94V95H112.781L112.86 94.0857L111.863 94ZM85.5732 94H84.5732V95H85.5732V94ZM85.5732 27.23H86.5732V26.23H85.5732V27.23ZM83.9232 27.23L82.929 27.1231L82.81 28.23H83.9232V27.23ZM85.0232 17V16H84.125L84.029 16.8931L85.0232 17ZM96.0232 17H97.0232V16H96.0232V17ZM96.0232 83.77H95.0232V84.77H96.0232V83.77ZM111.747 83.6843L110.867 93.9143L112.86 94.0857L113.74 83.8557L111.747 83.6843ZM111.863 93H85.5732V95H111.863V93ZM86.5732 94V27.23H84.5732V94H86.5732ZM85.5732 26.23H83.9232V28.23H85.5732V26.23ZM84.9175 27.3369L86.0175 17.1069L84.029 16.8931L82.929 27.1231L84.9175 27.3369ZM85.0232 18H96.0232V16H85.0232V18ZM95.0232 17V83.77H97.0232V17H95.0232ZM96.0232 84.77H112.743V82.77H96.0232V84.77ZM127.068 17H128.068V16H127.068V17ZM127.068 50.22H126.068V51.22H127.068V50.22ZM133.338 50.22V51.22H134.338V50.22H133.338ZM133.338 17V16H132.338V17H133.338ZM143.788 17H144.788V16H143.788V17ZM143.788 94V95H144.788V94H143.788ZM133.338 94H132.338V95H133.338V94ZM133.338 60.45H134.338V59.45H133.338V60.45ZM127.068 60.45V59.45H126.068V60.45H127.068ZM127.068 94V95H128.068V94H127.068ZM116.618 94H115.618V95H116.618V94ZM116.618 27.23H117.618V26.23H116.618V27.23ZM114.968 27.23L113.974 27.1231L113.855 28.23H114.968V27.23ZM116.068 17V16H115.17L115.074 16.8931L116.068 17ZM126.068 17V50.22H128.068V17H126.068ZM127.068 51.22H133.338V49.22H127.068V51.22ZM134.338 50.22V17H132.338V50.22H134.338ZM133.338 18H143.788V16H133.338V18ZM142.788 17V94H144.788V17H142.788ZM143.788 93H133.338V95H143.788V93ZM134.338 94V60.45H132.338V94H134.338ZM133.338 59.45H127.068V61.45H133.338V59.45ZM126.068 60.45V94H128.068V60.45H126.068ZM127.068 93H116.618V95H127.068V93ZM117.618 94V27.23H115.618V94H117.618ZM116.618 26.23H114.968V28.23H116.618V26.23ZM115.962 27.3369L117.062 17.1069L115.074 16.8931L113.974 27.1231L115.962 27.3369ZM116.068 18H127.068V16H116.068V18ZM173.694 83.77L174.691 83.8557L174.784 82.77H173.694V83.77ZM172.814 94V95H173.732L173.811 94.0857L172.814 94ZM148.724 94H147.724V95H148.724V94ZM148.724 27.23H149.724V26.23H148.724V27.23ZM147.074 27.23L146.08 27.1231L145.961 28.23H147.074V27.23ZM148.174 17V16H147.276L147.18 16.8931L148.174 17ZM173.694 17L174.689 17.1069L174.808 16H173.694V17ZM172.594 27.23V28.23H173.493L173.589 27.3369L172.594 27.23ZM159.174 27.23V26.23H158.174V27.23H159.174ZM159.174 50.33H158.174V51.33H159.174V50.33ZM171.494 50.33L172.489 50.4369L172.608 49.33H171.494V50.33ZM170.394 60.56V61.56H171.293L171.389 60.6669L170.394 60.56ZM159.174 60.56V59.56H158.174V60.56H159.174ZM159.174 83.77H158.174V84.77H159.174V83.77ZM172.698 83.6843L171.818 93.9143L173.811 94.0857L174.691 83.8557L172.698 83.6843ZM172.814 93H148.724V95H172.814V93ZM149.724 94V27.23H147.724V94H149.724ZM148.724 26.23H147.074V28.23H148.724V26.23ZM148.069 27.3369L149.169 17.1069L147.18 16.8931L146.08 27.1231L148.069 27.3369ZM148.174 18H173.694V16H148.174V18ZM172.7 16.8931L171.6 27.1231L173.589 27.3369L174.689 17.1069L172.7 16.8931ZM172.594 26.23H159.174V28.23H172.594V26.23ZM158.174 27.23V50.33H160.174V27.23H158.174ZM159.174 51.33H171.494V49.33H159.174V51.33ZM170.5 50.2231L169.4 60.4531L171.389 60.6669L172.489 50.4369L170.5 50.2231ZM170.394 59.56H159.174V61.56H170.394V59.56ZM158.174 60.56V83.77H160.174V60.56H158.174ZM159.174 84.77H173.694V82.77H159.174V84.77ZM176.413 27.23L175.419 27.1231L175.3 28.23H176.413V27.23ZM177.513 17V16H176.615L176.519 16.8931L177.513 17ZM202.373 19.86L201.666 20.5671L201.673 20.574L201.68 20.5808L202.373 19.86ZM204.243 66.06L205.127 66.5279L205.133 66.5176L205.138 66.5072L204.243 66.06ZM201.603 69.25L200.979 68.4691L200.46 68.8843L200.642 69.5236L201.603 69.25ZM208.643 94V95H209.968L209.605 93.7264L208.643 94ZM198.083 94L197.121 94.2728L197.328 95H198.083V94ZM191.813 71.89L192.776 71.6172L192.569 70.89H191.813V71.89ZM188.513 71.89V70.89H187.513V71.89H188.513ZM188.513 94V95H189.513V94H188.513ZM178.063 94H177.063V95H178.063V94ZM178.063 27.23H179.063V26.23H178.063V27.23ZM188.513 27.23V26.23H187.513V27.23H188.513ZM188.513 61.66H187.513V62.66H188.513V61.66ZM177.408 27.3369L178.508 17.1069L176.519 16.8931L175.419 27.1231L177.408 27.3369ZM177.513 18H194.893V16H177.513V18ZM194.893 18C197.749 18 199.974 18.8751 201.666 20.5671L203.081 19.1529C200.959 17.0316 198.198 16 194.893 16V18ZM201.68 20.5808C203.358 22.1944 204.233 24.3734 204.233 27.23H206.233C206.233 23.9266 205.202 21.1923 203.067 19.1392L201.68 20.5808ZM204.233 27.23V61.66H206.233V27.23H204.233ZM204.233 61.66C204.233 63.1328 203.933 64.4442 203.349 65.6128L205.138 66.5072C205.874 65.0358 206.233 63.4139 206.233 61.66H204.233ZM203.36 65.5921C202.764 66.718 201.972 67.6747 200.979 68.4691L202.228 70.0309C203.435 69.0653 204.403 67.8953 205.127 66.5279L203.36 65.5921ZM200.642 69.5236L207.682 94.2736L209.605 93.7264L202.565 68.9764L200.642 69.5236ZM208.643 93H198.083V95H208.643V93ZM199.046 93.7272L192.776 71.6172L190.851 72.1628L197.121 94.2728L199.046 93.7272ZM191.813 70.89H188.513V72.89H191.813V70.89ZM187.513 71.89V94H189.513V71.89H187.513ZM188.513 93H178.063V95H188.513V93ZM179.063 94V27.23H177.063V94H179.063ZM178.063 26.23H176.413V28.23H178.063V26.23ZM194.233 26.23H188.513V28.23H194.233V26.23ZM187.513 27.23V61.66H189.513V27.23H187.513ZM188.513 62.66H194.233V60.66H188.513V62.66ZM194.233 62.66C194.571 62.66 195.008 62.575 195.353 62.2296C195.698 61.8843 195.783 61.4475 195.783 61.11H193.783C193.783 61.1392 193.777 60.9774 193.939 60.8154C194.101 60.6534 194.263 60.66 194.233 60.66V62.66ZM195.783 61.11V27.78H193.783V61.11H195.783ZM195.783 27.78C195.783 27.4425 195.698 27.0057 195.353 26.6604C195.008 26.315 194.571 26.23 194.233 26.23V28.23C194.263 28.23 194.101 28.2366 193.939 28.0746C193.777 27.9126 193.783 27.7508 193.783 27.78H195.783ZM211.364 94H210.364V95H211.364V94ZM211.364 27.23H212.364V26.23H211.364V27.23ZM209.714 27.23L208.72 27.1231L208.601 28.23H209.714V27.23ZM210.814 17V16H209.916L209.82 16.8931L210.814 17ZM227.974 17L228.966 16.8737L228.855 16H227.974V17ZM233.254 58.47L232.262 58.5963L234.246 58.5989L233.254 58.47ZM238.644 17V16H237.766L237.653 16.8711L238.644 17ZM255.474 17H256.474V16H255.474V17ZM255.474 94V95H256.474V94H255.474ZM245.024 94H244.024V95H245.024V94ZM245.024 34.16H246.024L244.038 33.9956L245.024 34.16ZM236.884 83V84H237.731L237.871 83.1644L236.884 83ZM229.734 83L228.748 83.1644L228.887 84H229.734V83ZM221.814 35.48L222.801 35.3156L220.814 35.48H221.814ZM221.814 94V95H222.814V94H221.814ZM212.364 94V27.23H210.364V94H212.364ZM211.364 26.23H209.714V28.23H211.364V26.23ZM210.709 27.3369L211.809 17.1069L209.82 16.8931L208.72 27.1231L210.709 27.3369ZM210.814 18H227.974V16H210.814V18ZM226.982 17.1263L232.262 58.5963L234.246 58.3437L228.966 16.8737L226.982 17.1263ZM234.246 58.5989L239.636 17.1289L237.653 16.8711L232.263 58.3411L234.246 58.5989ZM238.644 18H255.474V16H238.644V18ZM254.474 17V94H256.474V17H254.474ZM255.474 93H245.024V95H255.474V93ZM246.024 94V34.16H244.024V94H246.024ZM244.038 33.9956L235.898 82.8356L237.871 83.1644L246.011 34.3244L244.038 33.9956ZM236.884 82H229.734V84H236.884V82ZM230.721 82.8356L222.801 35.3156L220.828 35.6444L228.748 83.1644L230.721 82.8356ZM220.814 35.48V94H222.814V35.48H220.814ZM221.814 93H211.364V95H221.814V93ZM285.413 83.77L286.409 83.8557L286.503 82.77H285.413V83.77ZM284.533 94V95H285.451L285.529 94.0857L284.533 94ZM260.443 94H259.443V95H260.443V94ZM260.443 27.23H261.443V26.23H260.443V27.23ZM258.793 27.23L257.799 27.1231L257.68 28.23H258.793V27.23ZM259.893 17V16H258.995L258.899 16.8931L259.893 17ZM285.413 17L286.407 17.1069L286.526 16H285.413V17ZM284.313 27.23V28.23H285.211L285.307 27.3369L284.313 27.23ZM270.893 27.23V26.23H269.893V27.23H270.893ZM270.893 50.33H269.893V51.33H270.893V50.33ZM283.213 50.33L284.207 50.4369L284.326 49.33H283.213V50.33ZM282.113 60.56V61.56H283.011L283.107 60.6669L282.113 60.56ZM270.893 60.56V59.56H269.893V60.56H270.893ZM270.893 83.77H269.893V84.77H270.893V83.77ZM284.417 83.6843L283.537 93.9143L285.529 94.0857L286.409 83.8557L284.417 83.6843ZM284.533 93H260.443V95H284.533V93ZM261.443 94V27.23H259.443V94H261.443ZM260.443 26.23H258.793V28.23H260.443V26.23ZM259.787 27.3369L260.887 17.1069L258.899 16.8931L257.799 27.1231L259.787 27.3369ZM259.893 18H285.413V16H259.893V18ZM284.419 16.8931L283.319 27.1231L285.307 27.3369L286.407 17.1069L284.419 16.8931ZM284.313 26.23H270.893V28.23H284.313V26.23ZM269.893 27.23V50.33H271.893V27.23H269.893ZM270.893 51.33H283.213V49.33H270.893V51.33ZM282.219 50.2231L281.119 60.4531L283.107 60.6669L284.207 50.4369L282.219 50.2231ZM282.113 59.56H270.893V61.56H282.113V59.56ZM269.893 60.56V83.77H271.893V60.56H269.893ZM270.893 84.77H285.413V82.77H270.893V84.77Z" fill="white"/>
<path d="M125.249 90.21L124.549 96.72H117.409V118H110.759V75.51H109.709L110.409 69H126.649L125.949 75.51H117.409V90.21H125.249ZM145.311 111.49L144.751 118H129.421V75.51H128.371L129.071 69H145.311L144.611 75.51H136.071V90.21H143.911L143.211 96.72H136.071V111.49H145.311ZM148.092 118V75.51H147.042L147.742 69H154.742V118H148.092ZM174.091 111.49L173.531 118H158.201V75.51H157.151L157.851 69H174.091L173.391 75.51H164.851V90.21H172.691L171.991 96.72H164.851V111.49H174.091ZM175.821 75.51L176.521 69H187.581C189.541 69 191.128 69.6067 192.341 70.82C193.554 71.9867 194.161 73.55 194.161 75.51V97.42C194.161 98.4467 193.951 99.38 193.531 100.22C193.111 101.013 192.551 101.69 191.851 102.25L196.331 118H189.611L185.621 103.93H183.521V118H176.871V75.51H175.821ZM187.161 75.51H183.521V97.42H187.161C187.394 97.42 187.511 97.3033 187.511 97.07V75.86C187.511 75.6267 187.394 75.51 187.161 75.51ZM217.291 69V90.14H221.281V69H227.931V118H221.281V96.65H217.291V118H210.641V75.51H209.591L210.291 69H217.291ZM248.922 111.77C248.922 113.73 248.315 115.317 247.102 116.53C245.889 117.697 244.302 118.28 242.342 118.28H238.002C236.042 118.28 234.455 117.697 233.242 116.53C232.029 115.317 231.422 113.73 231.422 111.77V75.51H230.372L231.072 69H238.072V111.42C238.072 111.653 238.189 111.77 238.422 111.77H241.922C242.155 111.77 242.272 111.653 242.272 111.42V69.14H248.922V111.77ZM266.206 90.21L265.506 96.72H258.366V118H251.716V75.51H250.666L251.366 69H267.606L266.906 75.51H258.366V90.21H266.206ZM284.869 90.21L284.169 96.72H277.029V118H270.379V75.51H269.329L270.029 69H286.269L285.569 75.51H277.029V90.21H284.869Z" fill="#0073A5" fill-opacity="0.5"/>
<path d="M125.249 90.21L126.244 90.3169L126.363 89.21H125.249V90.21ZM124.549 96.72V97.72H125.448L125.544 96.8269L124.549 96.72ZM117.409 96.72V95.72H116.409V96.72H117.409ZM117.409 118V119H118.409V118H117.409ZM110.759 118H109.759V119H110.759V118ZM110.759 75.51H111.759V74.51H110.759V75.51ZM109.709 75.51L108.715 75.4031L108.596 76.51H109.709V75.51ZM110.409 69V68H109.511L109.415 68.8931L110.409 69ZM126.649 69L127.644 69.1069L127.763 68H126.649V69ZM125.949 75.51V76.51H126.848L126.944 75.6169L125.949 75.51ZM117.409 75.51V74.51H116.409V75.51H117.409ZM117.409 90.21H116.409V91.21H117.409V90.21ZM124.255 90.1031L123.555 96.6131L125.544 96.8269L126.244 90.3169L124.255 90.1031ZM124.549 95.72H117.409V97.72H124.549V95.72ZM116.409 96.72V118H118.409V96.72H116.409ZM117.409 117H110.759V119H117.409V117ZM111.759 118V75.51H109.759V118H111.759ZM110.759 74.51H109.709V76.51H110.759V74.51ZM110.704 75.6169L111.404 69.1069L109.415 68.8931L108.715 75.4031L110.704 75.6169ZM110.409 70H126.649V68H110.409V70ZM125.655 68.8931L124.955 75.4031L126.944 75.6169L127.644 69.1069L125.655 68.8931ZM125.949 74.51H117.409V76.51H125.949V74.51ZM116.409 75.51V90.21H118.409V75.51H116.409ZM117.409 91.21H125.249V89.21H117.409V91.21ZM145.311 111.49L146.308 111.576L146.401 110.49H145.311V111.49ZM144.751 118V119H145.669L145.748 118.086L144.751 118ZM129.421 118H128.421V119H129.421V118ZM129.421 75.51H130.421V74.51H129.421V75.51ZM128.371 75.51L127.377 75.4031L127.258 76.51H128.371V75.51ZM129.071 69V68H128.173L128.077 68.8931L129.071 69ZM145.311 69L146.306 69.1069L146.425 68H145.311V69ZM144.611 75.51V76.51H145.51L145.606 75.6169L144.611 75.51ZM136.071 75.51V74.51H135.071V75.51H136.071ZM136.071 90.21H135.071V91.21H136.071V90.21ZM143.911 90.21L144.906 90.3169L145.025 89.21H143.911V90.21ZM143.211 96.72V97.72H144.11L144.206 96.8269L143.211 96.72ZM136.071 96.72V95.72H135.071V96.72H136.071ZM136.071 111.49H135.071V112.49H136.071V111.49ZM144.315 111.404L143.755 117.914L145.748 118.086L146.308 111.576L144.315 111.404ZM144.751 117H129.421V119H144.751V117ZM130.421 118V75.51H128.421V118H130.421ZM129.421 74.51H128.371V76.51H129.421V74.51ZM129.366 75.6169L130.066 69.1069L128.077 68.8931L127.377 75.4031L129.366 75.6169ZM129.071 70H145.311V68H129.071V70ZM144.317 68.8931L143.617 75.4031L145.606 75.6169L146.306 69.1069L144.317 68.8931ZM144.611 74.51H136.071V76.51H144.611V74.51ZM135.071 75.51V90.21H137.071V75.51H135.071ZM136.071 91.21H143.911V89.21H136.071V91.21ZM142.917 90.1031L142.217 96.6131L144.206 96.8269L144.906 90.3169L142.917 90.1031ZM143.211 95.72H136.071V97.72H143.211V95.72ZM135.071 96.72V111.49H137.071V96.72H135.071ZM136.071 112.49H145.311V110.49H136.071V112.49ZM148.092 118H147.092V119H148.092V118ZM148.092 75.51H149.092V74.51H148.092V75.51ZM147.042 75.51L146.048 75.4031L145.929 76.51H147.042V75.51ZM147.742 69V68H146.844L146.748 68.8931L147.742 69ZM154.742 69H155.742V68H154.742V69ZM154.742 118V119H155.742V118H154.742ZM149.092 118V75.51H147.092V118H149.092ZM148.092 74.51H147.042V76.51H148.092V74.51ZM148.036 75.6169L148.736 69.1069L146.748 68.8931L146.048 75.4031L148.036 75.6169ZM147.742 70H154.742V68H147.742V70ZM153.742 69V118H155.742V69H153.742ZM154.742 117H148.092V119H154.742V117ZM174.091 111.49L175.087 111.576L175.18 110.49H174.091V111.49ZM173.531 118V119H174.448L174.527 118.086L173.531 118ZM158.201 118H157.201V119H158.201V118ZM158.201 75.51H159.201V74.51H158.201V75.51ZM157.151 75.51L156.157 75.4031L156.037 76.51H157.151V75.51ZM157.851 69V68H156.953L156.857 68.8931L157.851 69ZM174.091 69L175.085 69.1069L175.204 68H174.091V69ZM173.391 75.51V76.51H174.289L174.385 75.6169L173.391 75.51ZM164.851 75.51V74.51H163.851V75.51H164.851ZM164.851 90.21H163.851V91.21H164.851V90.21ZM172.691 90.21L173.685 90.3169L173.804 89.21H172.691V90.21ZM171.991 96.72V97.72H172.889L172.985 96.8269L171.991 96.72ZM164.851 96.72V95.72H163.851V96.72H164.851ZM164.851 111.49H163.851V112.49H164.851V111.49ZM173.094 111.404L172.534 117.914L174.527 118.086L175.087 111.576L173.094 111.404ZM173.531 117H158.201V119H173.531V117ZM159.201 118V75.51H157.201V118H159.201ZM158.201 74.51H157.151V76.51H158.201V74.51ZM158.145 75.6169L158.845 69.1069L156.857 68.8931L156.157 75.4031L158.145 75.6169ZM157.851 70H174.091V68H157.851V70ZM173.097 68.8931L172.397 75.4031L174.385 75.6169L175.085 69.1069L173.097 68.8931ZM173.391 74.51H164.851V76.51H173.391V74.51ZM163.851 75.51V90.21H165.851V75.51H163.851ZM164.851 91.21H172.691V89.21H164.851V91.21ZM171.697 90.1031L170.997 96.6131L172.985 96.8269L173.685 90.3169L171.697 90.1031ZM171.991 95.72H164.851V97.72H171.991V95.72ZM163.851 96.72V111.49H165.851V96.72H163.851ZM164.851 112.49H174.091V110.49H164.851V112.49ZM175.821 75.51L174.827 75.4031L174.708 76.51H175.821V75.51ZM176.521 69V68H175.623L175.527 68.8931L176.521 69ZM192.341 70.82L191.634 71.5271L191.641 71.534L191.648 71.5408L192.341 70.82ZM193.531 100.22L194.415 100.688L194.42 100.678L194.426 100.667L193.531 100.22ZM191.851 102.25L191.226 101.469L190.707 101.884L190.889 102.524L191.851 102.25ZM196.331 118V119H197.655L197.293 117.726L196.331 118ZM189.611 118L188.649 118.273L188.855 119H189.611V118ZM185.621 103.93L186.583 103.657L186.377 102.93H185.621V103.93ZM183.521 103.93V102.93H182.521V103.93H183.521ZM183.521 118V119H184.521V118H183.521ZM176.871 118H175.871V119H176.871V118ZM176.871 75.51H177.871V74.51H176.871V75.51ZM183.521 75.51V74.51H182.521V75.51H183.521ZM183.521 97.42H182.521V98.42H183.521V97.42ZM176.815 75.6169L177.515 69.1069L175.527 68.8931L174.827 75.4031L176.815 75.6169ZM176.521 70H187.581V68H176.521V70ZM187.581 70C189.317 70 190.635 70.5284 191.634 71.5271L193.048 70.1129C191.62 68.6849 189.765 68 187.581 68V70ZM191.648 71.5408C192.633 72.4877 193.161 73.7734 193.161 75.51H195.161C195.161 73.3266 194.476 71.4856 193.034 70.0992L191.648 71.5408ZM193.161 75.51V97.42H195.161V75.51H193.161ZM193.161 97.42C193.161 98.3061 192.981 99.0842 192.637 99.7728L194.426 100.667C194.921 99.6758 195.161 98.5872 195.161 97.42H193.161ZM192.647 99.7521C192.291 100.425 191.819 100.995 191.226 101.469L192.476 103.031C193.283 102.385 193.931 101.602 194.415 100.688L192.647 99.7521ZM190.889 102.524L195.369 118.274L197.293 117.726L192.813 101.976L190.889 102.524ZM196.331 117H189.611V119H196.331V117ZM190.573 117.727L186.583 103.657L184.659 104.203L188.649 118.273L190.573 117.727ZM185.621 102.93H183.521V104.93H185.621V102.93ZM182.521 103.93V118H184.521V103.93H182.521ZM183.521 117H176.871V119H183.521V117ZM177.871 118V75.51H175.871V118H177.871ZM176.871 74.51H175.821V76.51H176.871V74.51ZM187.161 74.51H183.521V76.51H187.161V74.51ZM182.521 75.51V97.42H184.521V75.51H182.521ZM183.521 98.42H187.161V96.42H183.521V98.42ZM187.161 98.42C187.432 98.42 187.819 98.3516 188.131 98.0396C188.443 97.7276 188.511 97.3408 188.511 97.07H186.511C186.511 97.0325 186.521 96.8207 186.716 96.6254C186.912 96.43 187.124 96.42 187.161 96.42V98.42ZM188.511 97.07V75.86H186.511V97.07H188.511ZM188.511 75.86C188.511 75.5892 188.443 75.2024 188.131 74.8904C187.819 74.5784 187.432 74.51 187.161 74.51V76.51C187.124 76.51 186.912 76.4999 186.716 76.3046C186.521 76.1093 186.511 75.8975 186.511 75.86H188.511ZM217.291 69H218.291V68H217.291V69ZM217.291 90.14H216.291V91.14H217.291V90.14ZM221.281 90.14V91.14H222.281V90.14H221.281ZM221.281 69V68H220.281V69H221.281ZM227.931 69H228.931V68H227.931V69ZM227.931 118V119H228.931V118H227.931ZM221.281 118H220.281V119H221.281V118ZM221.281 96.65H222.281V95.65H221.281V96.65ZM217.291 96.65V95.65H216.291V96.65H217.291ZM217.291 118V119H218.291V118H217.291ZM210.641 118H209.641V119H210.641V118ZM210.641 75.51H211.641V74.51H210.641V75.51ZM209.591 75.51L208.596 75.4031L208.477 76.51H209.591V75.51ZM210.291 69V68H209.392L209.296 68.8931L210.291 69ZM216.291 69V90.14H218.291V69H216.291ZM217.291 91.14H221.281V89.14H217.291V91.14ZM222.281 90.14V69H220.281V90.14H222.281ZM221.281 70H227.931V68H221.281V70ZM226.931 69V118H228.931V69H226.931ZM227.931 117H221.281V119H227.931V117ZM222.281 118V96.65H220.281V118H222.281ZM221.281 95.65H217.291V97.65H221.281V95.65ZM216.291 96.65V118H218.291V96.65H216.291ZM217.291 117H210.641V119H217.291V117ZM211.641 118V75.51H209.641V118H211.641ZM210.641 74.51H209.591V76.51H210.641V74.51ZM210.585 75.6169L211.285 69.1069L209.296 68.8931L208.596 75.4031L210.585 75.6169ZM210.291 70H217.291V68H210.291V70ZM247.102 116.53L247.795 117.251L247.802 117.244L247.809 117.237L247.102 116.53ZM233.242 116.53L232.535 117.237L232.542 117.244L232.549 117.251L233.242 116.53ZM231.422 75.51H232.422V74.51H231.422V75.51ZM230.372 75.51L229.378 75.4031L229.259 76.51H230.372V75.51ZM231.072 69V68H230.174L230.078 68.8931L231.072 69ZM238.072 69H239.072V68H238.072V69ZM242.272 69.14V68.14H241.272V69.14H242.272ZM248.922 69.14H249.922V68.14H248.922V69.14ZM247.922 111.77C247.922 113.506 247.393 114.824 246.395 115.823L247.809 117.237C249.237 115.809 249.922 113.954 249.922 111.77H247.922ZM246.409 115.809C245.412 116.767 244.089 117.28 242.342 117.28V119.28C244.515 119.28 246.365 118.626 247.795 117.251L246.409 115.809ZM242.342 117.28H238.002V119.28H242.342V117.28ZM238.002 117.28C236.255 117.28 234.932 116.767 233.935 115.809L232.549 117.251C233.979 118.626 235.829 119.28 238.002 119.28V117.28ZM233.949 115.823C232.95 114.824 232.422 113.506 232.422 111.77H230.422C230.422 113.954 231.107 115.809 232.535 117.237L233.949 115.823ZM232.422 111.77V75.51H230.422V111.77H232.422ZM231.422 74.51H230.372V76.51H231.422V74.51ZM231.366 75.6169L232.066 69.1069L230.078 68.8931L229.378 75.4031L231.366 75.6169ZM231.072 70H238.072V68H231.072V70ZM237.072 69V111.42H239.072V69H237.072ZM237.072 111.42C237.072 111.691 237.14 112.078 237.452 112.39C237.764 112.702 238.151 112.77 238.422 112.77V110.77C238.459 110.77 238.671 110.78 238.866 110.975C239.062 111.171 239.072 111.383 239.072 111.42H237.072ZM238.422 112.77H241.922V110.77H238.422V112.77ZM241.922 112.77C242.193 112.77 242.579 112.702 242.891 112.39C243.203 112.078 243.272 111.691 243.272 111.42H241.272C241.272 111.383 241.282 111.171 241.477 110.975C241.673 110.78 241.884 110.77 241.922 110.77V112.77ZM243.272 111.42V69.14H241.272V111.42H243.272ZM242.272 70.14H248.922V68.14H242.272V70.14ZM247.922 69.14V111.77H249.922V69.14H247.922ZM266.206 90.21L267.201 90.3169L267.32 89.21H266.206V90.21ZM265.506 96.72V97.72H266.405L266.501 96.8269L265.506 96.72ZM258.366 96.72V95.72H257.366V96.72H258.366ZM258.366 118V119H259.366V118H258.366ZM251.716 118H250.716V119H251.716V118ZM251.716 75.51H252.716V74.51H251.716V75.51ZM250.666 75.51L249.672 75.4031L249.553 76.51H250.666V75.51ZM251.366 69V68H250.468L250.372 68.8931L251.366 69ZM267.606 69L268.601 69.1069L268.72 68H267.606V69ZM266.906 75.51V76.51H267.805L267.901 75.6169L266.906 75.51ZM258.366 75.51V74.51H257.366V75.51H258.366ZM258.366 90.21H257.366V91.21H258.366V90.21ZM265.212 90.1031L264.512 96.6131L266.501 96.8269L267.201 90.3169L265.212 90.1031ZM265.506 95.72H258.366V97.72H265.506V95.72ZM257.366 96.72V118H259.366V96.72H257.366ZM258.366 117H251.716V119H258.366V117ZM252.716 118V75.51H250.716V118H252.716ZM251.716 74.51H250.666V76.51H251.716V74.51ZM251.661 75.6169L252.361 69.1069L250.372 68.8931L249.672 75.4031L251.661 75.6169ZM251.366 70H267.606V68H251.366V70ZM266.612 68.8931L265.912 75.4031L267.901 75.6169L268.601 69.1069L266.612 68.8931ZM266.906 74.51H258.366V76.51H266.906V74.51ZM257.366 75.51V90.21H259.366V75.51H257.366ZM258.366 91.21H266.206V89.21H258.366V91.21ZM284.869 90.21L285.863 90.3169L285.982 89.21H284.869V90.21ZM284.169 96.72V97.72H285.067L285.163 96.8269L284.169 96.72ZM277.029 96.72V95.72H276.029V96.72H277.029ZM277.029 118V119H278.029V118H277.029ZM270.379 118H269.379V119H270.379V118ZM270.379 75.51H271.379V74.51H270.379V75.51ZM269.329 75.51L268.334 75.4031L268.215 76.51H269.329V75.51ZM270.029 69V68H269.13L269.034 68.8931L270.029 69ZM286.269 69L287.263 69.1069L287.382 68H286.269V69ZM285.569 75.51V76.51H286.467L286.563 75.6169L285.569 75.51ZM277.029 75.51V74.51H276.029V75.51H277.029ZM277.029 90.21H276.029V91.21H277.029V90.21ZM283.874 90.1031L283.174 96.6131L285.163 96.8269L285.863 90.3169L283.874 90.1031ZM284.169 95.72H277.029V97.72H284.169V95.72ZM276.029 96.72V118H278.029V96.72H276.029ZM277.029 117H270.379V119H277.029V117ZM271.379 118V75.51H269.379V118H271.379ZM270.379 74.51H269.329V76.51H270.379V74.51ZM270.323 75.6169L271.023 69.1069L269.034 68.8931L268.334 75.4031L270.323 75.6169ZM270.029 70H286.269V68H270.029V70ZM285.274 68.8931L284.574 75.4031L286.563 75.6169L287.263 69.1069L285.274 68.8931ZM285.569 74.51H277.029V76.51H285.569V74.51ZM276.029 75.51V90.21H278.029V75.51H276.029ZM277.029 91.21H284.869V89.21H277.029V91.21Z" fill="white"/>
</svg>
